<svg preserveAspectRatio="none" width="100%" height="100%" overflow="visible" style="display: block;" viewBox="0 0 17 18" fill="none" xmlns="http://www.w3.org/2000/svg">
<g id="Group">
<path id="Vector" d="M6.98333 17.9165C6.58333 17.9165 6.18333 17.8165 5.81667 17.6082C5.075 17.1915 4.63333 16.4498 4.63333 15.6081V11.1498C4.63333 10.7248 4.35833 10.0998 4.1 9.77475L0.933333 6.44979C0.408333 5.92479 -7.94729e-08 5.00814 -7.94729e-08 4.33314V2.3998C-7.94729e-08 1.05813 1.01667 0.00814174 2.30833 0.00814174H13.4167C14.6917 0.00814174 15.725 1.04149 15.725 2.31649V4.16647C15.725 5.04147 15.2 6.04978 14.7 6.54144C14.4583 6.78311 14.0583 6.78311 13.8167 6.54144C13.575 6.29978 13.575 5.89978 13.8167 5.65811C14.125 5.34978 14.475 4.65813 14.475 4.16647V2.31649C14.475 1.73316 14 1.25814 13.4167 1.25814H2.31667C1.725 1.25814 1.25833 1.75813 1.25833 2.3998V4.33314C1.25833 4.64148 1.50833 5.2498 1.83333 5.5748L5.04167 8.94975C5.46667 9.47475 5.88333 10.3582 5.88333 11.1498V15.6081C5.88333 16.1581 6.25833 16.4248 6.425 16.5165C6.78333 16.7165 7.20833 16.7082 7.54167 16.5082L8.70833 15.7581C9 15.5748 9.38333 15.6582 9.575 15.9498C9.75833 16.2415 9.675 16.6248 9.38333 16.8164L8.20833 17.5748C7.83333 17.7998 7.40833 17.9165 6.98333 17.9165Z" fill="var(--fill-0, #295E84)"/>
<path id="Vector_2" d="M11.9418 15.8333C10.3418 15.8333 8.83342 14.9833 8.01675 13.6083C7.58342 12.9083 7.35842 12.0917 7.35842 11.25C7.35842 8.725 9.41675 6.66667 11.9418 6.66667C14.4668 6.66667 16.5251 8.725 16.5251 11.25C16.5251 12.0917 16.2918 12.9083 15.8584 13.6167C15.0501 14.9833 13.5501 15.8333 11.9418 15.8333ZM11.9418 7.91667C10.1001 7.91667 8.60842 9.40833 8.60842 11.25C8.60842 11.8583 8.77508 12.45 9.09175 12.9583C9.69175 13.9667 10.7834 14.5833 11.9418 14.5833C13.1251 14.5833 14.1918 13.9833 14.7918 12.9667C15.1084 12.45 15.2751 11.8583 15.2751 11.25C15.2751 9.40833 13.7834 7.91667 11.9418 7.91667Z" fill="var(--fill-0, #295E84)"/>
<path id="Vector_3" d="M13.0003 12.9083C12.8419 12.9083 12.6836 12.8499 12.5586 12.7249L10.4669 10.6333C10.2253 10.3916 10.2253 9.99158 10.4669 9.74992C10.7086 9.50825 11.1086 9.50825 11.3503 9.74992L13.4419 11.8416C13.6836 12.0832 13.6836 12.4832 13.4419 12.7249C13.3253 12.8499 13.1669 12.9083 13.0003 12.9083Z" fill="var(--fill-0, #295E84)"/>
<path id="Vector_4" d="M10.8919 12.9328C10.7336 12.9328 10.5753 12.8743 10.4503 12.7493C10.2086 12.5077 10.2086 12.1077 10.4503 11.866L12.5419 9.77433C12.7836 9.53267 13.1836 9.53267 13.4253 9.77433C13.6669 10.016 13.6669 10.416 13.4253 10.6577L11.3336 12.7493C11.2086 12.8743 11.0502 12.9328 10.8919 12.9328Z" fill="var(--fill-0, #295E84)"/>
<path id="Vector_5" d="M6.98333 17.9167C6.58333 17.9167 6.18333 17.8167 5.825 17.6167C5.08333 17.2 4.64167 16.45 4.64167 15.6083V11.15C4.64167 10.7333 4.36667 10.1 4.1 9.775L0.933333 6.44999C0.408333 5.90833 0 5.00001 0 4.33334V2.39167C0 1.05 1.01667 0 2.30833 0H13.425C14.7 0 15.7333 1.03335 15.7333 2.30835V4.15833C15.7333 5.03333 15.2167 6.01669 14.7167 6.53336L13.2167 7.85833C13.0667 7.99167 12.85 8.04167 12.6583 8C12.4333 7.94167 12.1917 7.91667 11.9417 7.91667C10.1 7.91667 8.60833 9.40833 8.60833 11.25C8.60833 11.8583 8.775 12.45 9.09167 12.9667C9.35833 13.4083 9.71667 13.775 10.1333 14.0333C10.3167 14.15 10.4333 14.35 10.4333 14.5667V14.85C10.4333 15.5083 10.0333 16.4333 9.36667 16.825L8.21667 17.5667C7.84167 17.8 7.40833 17.9167 6.98333 17.9167ZM2.31667 1.25C1.725 1.25 1.25833 1.75 1.25833 2.39167V4.33334C1.25833 4.63334 1.50833 5.25001 1.84167 5.58334L5.05 8.95833C5.475 9.48333 5.9 10.375 5.9 11.1583V15.6167C5.9 16.1667 6.28333 16.4417 6.44167 16.5333C6.8 16.7333 7.225 16.725 7.55 16.525L8.71667 15.775C8.94167 15.6417 9.16667 15.2167 9.18333 14.9167C8.725 14.575 8.325 14.1333 8.025 13.6333C7.59167 12.925 7.35833 12.1083 7.35833 11.275C7.35833 8.75 9.41667 6.69169 11.9417 6.69169C12.175 6.69169 12.4083 6.70836 12.625 6.74169L13.8583 5.65003C14.1417 5.35836 14.4917 4.66667 14.4917 4.17501V2.32498C14.4917 1.74165 14.0167 1.26668 13.4333 1.26668H2.31667V1.25Z" fill="var(--fill-0, #295E84)"/>
</g>
</svg>
